<svg xmlns="http://www.w3.org/2000/svg" viewBox="0 0 338 92" role="img" aria-labelledby="title desc">
  <title id="title">Essence K</title>
  <desc id="desc">Versão curta da logo Essence K.</desc>
  <use href="#mark"/>
  <defs>
    <g id="mark" transform="translate(0 4) scale(.78)">
      <rect width="96" height="96" rx="24" fill="#fff9f4"/>
      <path d="M48 13c14.9 16.1 27 31.7 27 49.1 0 16-11.2 25.9-27 25.9S21 78.1 21 62.1C21 44.7 33.1 29.1 48 13Z" fill="#f8c8dc" opacity=".34"/>
      <path d="M31 33.5c0-8.8 7-15.5 17-15.5s17 6.7 17 15.5v27.8C65 71.6 58.2 78 48 78s-17-6.4-17-16.7V33.5Z" fill="#fff9f4" stroke="#111111" stroke-width="2.4"/>
      <path d="M40 36h13.5M40 48h11.5M40 60h13.5" stroke="#111111" stroke-width="3.2" stroke-linecap="round"/>
      <path d="M58 35v27M58.5 49.2 70 36M58.5 49.2 71 62" stroke="#f8c8dc" stroke-width="4" stroke-linecap="round" stroke-linejoin="round"/>
      <path d="M42 23h12" stroke="#111111" stroke-width="2.4" stroke-linecap="round"/>
    </g>
  </defs>
  <text x="92" y="58" font-family="'Cormorant Garamond', Georgia, serif" font-size="48" font-weight="700" fill="#111111" letter-spacing=".3">Essence</text>
  <text x="276" y="58" font-family="'Cormorant Garamond', Georgia, serif" font-size="52" font-weight="700" fill="#f8c8dc">K</text>
</svg>
