<svg xmlns="http://www.w3.org/2000/svg" viewBox="0 0 320 320" role="img" aria-labelledby="title desc">
  <title id="title">Essence K Importados</title>
  <desc id="desc">Versão empilhada da logo Essence K Importados para redes sociais e etiquetas.</desc>
  <rect width="320" height="320" rx="34" fill="#fff9f4"/>
  <g transform="translate(104 34) scale(1.16)">
    <rect width="96" height="96" rx="24" fill="#fff9f4"/>
    <path d="M48 13c14.9 16.1 27 31.7 27 49.1 0 16-11.2 25.9-27 25.9S21 78.1 21 62.1C21 44.7 33.1 29.1 48 13Z" fill="#f8c8dc" opacity=".38"/>
    <path d="M31 33.5c0-8.8 7-15.5 17-15.5s17 6.7 17 15.5v27.8C65 71.6 58.2 78 48 78s-17-6.4-17-16.7V33.5Z" fill="#fff9f4" stroke="#111111" stroke-width="2.4"/>
    <path d="M40 36h13.5M40 48h11.5M40 60h13.5" stroke="#111111" stroke-width="3.2" stroke-linecap="round"/>
    <path d="M58 35v27M58.5 49.2 70 36M58.5 49.2 71 62" stroke="#f8c8dc" stroke-width="4" stroke-linecap="round" stroke-linejoin="round"/>
    <path d="M42 23h12" stroke="#111111" stroke-width="2.4" stroke-linecap="round"/>
    <path d="M72.2 20.8 74 16l1.8 4.8 4.8 1.8-4.8 1.8-1.8 4.8-1.8-4.8-4.8-1.8 4.8-1.8Z" fill="#111111"/>
  </g>
  <text x="160" y="194" text-anchor="middle" font-family="'Cormorant Garamond', Georgia, serif" font-size="51" font-weight="700" fill="#111111">Essence <tspan fill="#f8c8dc">K</tspan></text>
  <text x="160" y="224" text-anchor="middle" font-family="'Jost', Arial, sans-serif" font-size="12" font-weight="500" fill="#111111" opacity=".7" letter-spacing="5">IMPORTADOS</text>
  <path d="M89 244h142" stroke="#f8c8dc" stroke-width="1.5" stroke-linecap="round"/>
  <text x="160" y="270" text-anchor="middle" font-family="'Jost', Arial, sans-serif" font-size="11" font-weight="400" fill="#111111" opacity=".52" letter-spacing="1.6">K-BEAUTY · PERFUMES · SKINCARE</text>
</svg>
